<?xml version="1.0" encoding="UTF-8" standalone="no"?>
<!-- Created with Inkscape (http://www.inkscape.org/) -->

<svg
   width="44.013397mm"
   height="28.53573mm"
   viewBox="0 0 44.013397 28.53573"
   version="1.1"
   id="svg1"
   inkscape:export-filename="UTIS2.svg"
   inkscape:export-xdpi="96"
   inkscape:export-ydpi="96"
   sodipodi:docname="UTIS2 (1).svg"
   inkscape:version="1.4 (86a8ad7, 2024-10-11)"
   xmlns:inkscape="http://www.inkscape.org/namespaces/inkscape"
   xmlns:sodipodi="http://sodipodi.sourceforge.net/DTD/sodipodi-0.dtd"
   xmlns="http://www.w3.org/2000/svg"
   xmlns:svg="http://www.w3.org/2000/svg">
  <sodipodi:namedview
     id="namedview1"
     pagecolor="#ffffff"
     bordercolor="#000000"
     borderopacity="0.25"
     inkscape:showpageshadow="2"
     inkscape:pageopacity="0.0"
     inkscape:pagecheckerboard="0"
     inkscape:deskcolor="#d1d1d1"
     inkscape:document-units="mm"
     inkscape:zoom="3.4144904"
     inkscape:cx="96.793359"
     inkscape:cy="71.46015"
     inkscape:window-width="1920"
     inkscape:window-height="992"
     inkscape:window-x="-8"
     inkscape:window-y="-8"
     inkscape:window-maximized="1"
     inkscape:current-layer="layer1">
    <inkscape:page
       x="0"
       y="0"
       width="44.013397"
       height="28.53573"
       id="page5"
       margin="0"
       bleed="0" />
  </sodipodi:namedview>
  <defs
     id="defs1">
    <rect
       x="31.477678"
       y="49.287418"
       width="48.459057"
       height="37.276196"
       id="rect4" />
    <rect
       x="41.417995"
       y="45.145618"
       width="52.186676"
       height="54.257576"
       id="rect2" />
  </defs>
  <g
     inkscape:label="Ebene 1"
     inkscape:groupmode="layer"
     id="layer1"
     transform="translate(-69.825115,-109.11098)">
    <path
       id="text1-0"
       style="font-size:8.46667px;white-space:pre;inline-size:12.9671;fill:#000000;fill-opacity:1;stroke:#000000;stroke-width:0.995546;stroke-opacity:0"
       d="m 87.133548,115.24479 h -8.866973 c -1.771831,0 -3.289821,0.31011 -4.553932,0.93091 -1.25373,0.62079 -2.212258,1.5209 -2.875404,2.70039 -0.652766,1.18984 -0.979279,2.61779 -0.979279,4.28356 0,1.67613 0.326323,3.10921 0.979279,4.29904 0.663146,1.18984 1.621674,2.09508 2.875404,2.71587 1.264111,0.62079 2.782101,0.93143 4.553932,0.93143 h 8.866973 v -3.16635 h -8.976037 c -1.647466,0 -2.921727,-0.41899 -3.823183,-1.25705 -0.901426,-0.82771 -1.352424,-2.00201 -1.352424,-3.52294 0,-1.51058 0.450998,-2.67974 1.352424,-3.50746 0.901456,-0.82771 2.175717,-1.24156 3.823183,-1.24156 h 8.976037 z"
       inkscape:label="text1-0"
       inkscape:export-filename="UTIS1.svg"
       inkscape:export-xdpi="96"
       inkscape:export-ydpi="96" />
    <path
       id="text1-0-8"
       style="font-size:8.46667px;white-space:pre;inline-size:12.9671;fill:#000000;fill-opacity:1;stroke:#000000;stroke-width:0.996234;stroke-opacity:0"
       d="m 85.059394,131.09427 h 8.86662 c 1.771763,0 3.289693,-0.31056 4.553753,-0.93224 1.25368,-0.62167 2.212173,-1.52306 2.875293,-2.70423 0.65274,-1.19153 0.97924,-2.62152 0.97924,-4.28966 0,-1.67851 -0.32631,-3.11363 -0.97924,-4.30516 -0.66312,-1.19153 -1.621613,-2.09806 -2.875293,-2.71973 -1.26406,-0.62167 -2.78199,-0.93276 -4.553753,-0.93276 h -8.86662 v 3.17086 h 8.97568 c 1.647403,0 2.921613,0.41959 3.823033,1.25884 0.90139,0.82889 1.35237,2.00486 1.35237,3.52795 0,1.51273 -0.45098,2.68356 -1.35237,3.51245 -0.90142,0.82889 -2.17563,1.24333 -3.823033,1.24333 h -8.97568 z" />
    <rect
       style="fill:#000000;fill-opacity:1;stroke:#000000;stroke-width:0.251162;stroke-opacity:0"
       id="rect2-5"
       width="12.549273"
       height="3.1601443"
       x="79.784424"
       y="115.22115" />
    <rect
       style="fill:#000000;fill-opacity:1;stroke:#000000;stroke-width:0.253916;stroke-opacity:0"
       id="rect2-5-2"
       width="13.375436"
       height="3.0303214"
       x="79.785797"
       y="127.91331" />
    <path
       id="text1-5"
       style="font-size:8.46667px;white-space:pre;inline-size:12.9671;fill:#005aa0;fill-opacity:1;stroke:#000000;stroke-width:0.833369;stroke-opacity:0"
       d="m 86.264722,109.07924 c -1.359925,8.6e-4 -2.522573,0.28363 -3.487622,0.84803 -0.965047,0.57338 -1.699223,1.40154 -2.202268,2.48469 -0.503041,1.09209 -0.754099,2.40322 -0.75321,3.93348 l 0.0013,2.11737 h 2.569035 l -0.0013,-2.21291 c -8.09e-4,-1.42284 0.338306,-2.52378 1.017815,-3.3028 0.671117,-0.77898 1.623923,-1.16899 2.857929,-1.16981 1.225608,-8e-4 2.174178,0.38769 2.846198,1.1658 0.67202,0.77811 1.008616,1.87861 1.009442,3.30149 l 0.0013,2.21822 2.568613,-1e-5 -0.0012,-2.12584 c -8.91e-4,-1.53026 -0.253505,-2.84115 -0.757814,-3.93258 -0.504305,-1.08245 -1.234904,-1.90992 -2.192219,-2.48202 -0.965708,-0.56313 -2.124371,-0.844 -3.4759,-0.84311 z" />
    <path
       id="text1-5-8"
       style="font-size:8.46667px;white-space:pre;inline-size:12.9671;fill:#005aa0;fill-opacity:1;stroke:#000000;stroke-width:0.666621;stroke-opacity:0"
       d="m 86.32771,110.44069 c -1.018596,7.3e-4 -1.88943,0.2423 -2.612258,0.72445 -0.722829,0.48983 -1.272735,1.1973 -1.649519,2.12262 -0.376782,0.93294 -0.564827,2.05298 -0.564161,3.36025 l 9.56e-4,1.80882 h 1.924228 l -9.55e-4,-1.89044 c -6.05e-4,-1.21549 0.253395,-2.15598 0.762353,-2.82149 0.502672,-0.66546 1.216332,-0.99864 2.140614,-0.99933 0.91799,-6.9e-4 1.628478,0.33118 2.131827,0.99591 0.503348,0.66472 0.755461,1.60484 0.756081,2.82038 l 9.53e-4,1.89496 h 1.923913 l -8.67e-4,-1.81605 c -6.66e-4,-1.30726 -0.189878,-2.42714 -0.56761,-3.3595 -0.377728,-0.92472 -0.924952,-1.6316 -1.641989,-2.12033 -0.723325,-0.48107 -1.591173,-0.72101 -2.60348,-0.72025 z" />
    <text
       xml:space="preserve"
       style="font-style:normal;font-variant:normal;font-weight:normal;font-stretch:normal;font-size:12.7px;font-family:Hermann;-inkscape-font-specification:Hermann;fill:#005aa0;fill-opacity:1;stroke:#000000;stroke-width:0.264999;stroke-opacity:0"
       x="78.024879"
       y="137.60757"
       id="text3"><tspan
         id="tspan3"
         style="font-style:normal;font-variant:normal;font-weight:normal;font-stretch:normal;font-size:12.7px;font-family:Hermann;-inkscape-font-specification:Hermann;fill:#005aa0;fill-opacity:1;stroke-width:0.265"
         x="78.024879"
         y="137.60757"
         sodipodi:role="line"><tspan
   style="font-size:25.4px;fill:#005aa0;fill-opacity:1"
   id="tspan4">U</tspan>TIS</tspan></text>
    <text
       xml:space="preserve"
       transform="matrix(0.26458333,0,0,0.26458333,69.360185,107.01879)"
       id="text2"
       style="font-style:normal;font-variant:normal;font-weight:normal;font-stretch:normal;font-size:21.3333px;font-family:Arial;-inkscape-font-specification:Arial;text-align:start;writing-mode:lr-tb;direction:ltr;white-space:pre;shape-inside:url(#rect2);fill:#ffffff;stroke:#ffffff;stroke-width:1.00157" />
  </g>
</svg>
