<?xml version="1.0" encoding="UTF-8" standalone="no"?>
<!-- Created with Inkscape (http://www.inkscape.org/) -->

<svg
   width="42.716103mm"
   height="30.60791mm"
   viewBox="0 0 42.716103 30.60791"
   version="1.1"
   id="svg1"
   inkscape:export-filename="UTIS2.svg"
   inkscape:export-xdpi="96"
   inkscape:export-ydpi="96"
   xmlns:inkscape="http://www.inkscape.org/namespaces/inkscape"
   xmlns:sodipodi="http://sodipodi.sourceforge.net/DTD/sodipodi-0.dtd"
   xmlns="http://www.w3.org/2000/svg"
   xmlns:svg="http://www.w3.org/2000/svg">
  <sodipodi:namedview
     id="namedview1"
     pagecolor="#ffffff"
     bordercolor="#000000"
     borderopacity="0.25"
     inkscape:showpageshadow="2"
     inkscape:pageopacity="0.0"
     inkscape:pagecheckerboard="0"
     inkscape:deskcolor="#d1d1d1"
     inkscape:document-units="mm" />
  <defs
     id="defs1" />
  <g
     inkscape:label="Ebene 1"
     inkscape:groupmode="layer"
     id="layer1"
     transform="translate(-69.360185,-107.01879)">
    <path
       id="text1-0"
       style="font-size:8.46667px;white-space:pre;inline-size:12.9671;fill:#313131;fill-opacity:1;stroke:#000000;stroke-width:0.995546;stroke-opacity:0"
       d="m 87.133548,115.24479 h -8.866973 c -1.771831,0 -3.289821,0.31011 -4.553932,0.93091 -1.25373,0.62079 -2.212258,1.5209 -2.875404,2.70039 -0.652766,1.18984 -0.979279,2.61779 -0.979279,4.28356 0,1.67613 0.326323,3.10921 0.979279,4.29904 0.663146,1.18984 1.621674,2.09508 2.875404,2.71587 1.264111,0.62079 2.782101,0.93143 4.553932,0.93143 h 8.866973 v -3.16635 h -8.976037 c -1.647466,0 -2.921727,-0.41899 -3.823183,-1.25705 -0.901426,-0.82771 -1.352424,-2.00201 -1.352424,-3.52294 0,-1.51058 0.450998,-2.67974 1.352424,-3.50746 0.901456,-0.82771 2.175717,-1.24156 3.823183,-1.24156 h 8.976037 z"
       inkscape:label="text1-0"
       inkscape:export-filename="UTIS1.svg"
       inkscape:export-xdpi="96"
       inkscape:export-ydpi="96" />
    <path
       id="text1-0-8"
       style="font-size:8.46667px;white-space:pre;inline-size:12.9671;fill:#313131;fill-opacity:1;stroke:#000000;stroke-width:0.996234;stroke-opacity:0"
       d="m 85.059394,131.09427 h 8.86662 c 1.771763,0 3.289693,-0.31056 4.553753,-0.93224 1.25368,-0.62167 2.212173,-1.52306 2.875293,-2.70423 0.65274,-1.19153 0.97924,-2.62152 0.97924,-4.28966 0,-1.67851 -0.32631,-3.11363 -0.97924,-4.30516 -0.66312,-1.19153 -1.621613,-2.09806 -2.875293,-2.71973 -1.26406,-0.62167 -2.78199,-0.93276 -4.553753,-0.93276 h -8.86662 v 3.17086 h 8.97568 c 1.647403,0 2.921613,0.41959 3.823033,1.25884 0.90139,0.82889 1.35237,2.00486 1.35237,3.52795 0,1.51273 -0.45098,2.68356 -1.35237,3.51245 -0.90142,0.82889 -2.17563,1.24333 -3.823033,1.24333 h -8.97568 z" />
    <rect
       style="fill:#313131;fill-opacity:1;stroke:#000000;stroke-width:0.251162;stroke-opacity:0"
       id="rect2-5"
       width="12.549273"
       height="3.1601443"
       x="79.784424"
       y="115.22115" />
    <rect
       style="fill:#313131;fill-opacity:1;stroke:#000000;stroke-width:0.253916;stroke-opacity:0"
       id="rect2-5-2"
       width="13.375436"
       height="3.0303214"
       x="79.785797"
       y="127.91331" />
    <path
       id="text1-5"
       style="font-size:8.46667px;white-space:pre;inline-size:12.9671;fill:#920000;fill-opacity:1;stroke:#000000;stroke-width:0.996234;stroke-opacity:0"
       d="m 86.102177,107.5169 c -1.678506,10e-4 -3.113521,0.32839 -4.304646,0.98187 -1.191123,0.66386 -2.09729,1.62272 -2.718181,2.87682 -0.620885,1.26445 -0.930756,2.78249 -0.929659,4.55425 l 0.0016,2.45153 h 3.170867 l -0.0016,-2.56214 c -0.001,-1.6474 0.417559,-2.92209 1.256253,-3.82404 0.828334,-0.90193 2.004348,-1.35349 3.527437,-1.35443 1.512724,-9.4e-4 2.68351,0.44886 3.51296,1.34978 0.82945,0.90091 1.244899,2.17508 1.245919,3.82252 l 0.0016,2.5683 3.170347,-1e-5 -0.0015,-2.46134 c -0.0011,-1.77176 -0.312893,-3.28954 -0.935342,-4.55321 -0.622447,-1.25329 -1.524199,-2.21134 -2.705778,-2.87373 -1.191938,-0.652 -2.622034,-0.9772 -4.290178,-0.97617 z" />
    <path
       id="text1"
       style="font-size:8.46667px;white-space:pre;inline-size:12.9671;fill:#920000;fill-opacity:1;stroke:#000000;stroke-width:0.264999;stroke-opacity:0"
       d="m 76.770851,123.32272 v 2.35853 c 0,0.47129 0.08261,0.87506 0.247977,1.2113 0.165365,0.33348 0.405135,0.58844 0.719327,0.76483 0.316949,0.17363 0.697326,0.26048 1.141054,0.26048 0.446484,0 0.828228,-0.0868 1.145177,-0.26048 0.316948,-0.17639 0.558086,-0.43135 0.723451,-0.76483 0.165364,-0.33624 0.248114,-0.74001 0.248114,-1.2113 v -2.35853 h -0.843453 v 2.38754 c 0,0.43821 -0.11161,0.77715 -0.334852,1.01693 -0.220486,0.23977 -0.533294,0.35973 -0.938437,0.35973 -0.402387,0 -0.713828,-0.11996 -0.934314,-0.35973 -0.220486,-0.23978 -0.330728,-0.57872 -0.330728,-1.01693 v -2.38754 z"
       transform="matrix(3.7593865,0,0,3.7593865,-210.45379,-343.7641)" />
    <text
       xml:space="preserve"
       style="font-style:normal;font-variant:normal;font-weight:normal;font-stretch:normal;font-size:12.7px;font-family:Bahnschrift;-inkscape-font-specification:Bahnschrift;fill:#920000;fill-opacity:1;stroke:#000000;stroke-width:0.264999;stroke-opacity:0"
       x="94.946381"
       y="136.95007"
       id="text3"><tspan
         sodipodi:role="line"
         id="tspan3"
         style="font-size:12.7px;stroke-width:0.265"
         x="94.946381"
         y="136.95007">TIS</tspan></text>
  </g>
</svg>
